<mxfile host="app.diagrams.net" modified="2024-02-14T07:27:30.944Z" agent="Mozilla/5.0 (Windows NT 10.0; Win64; x64) AppleWebKit/537.36 (KHTML, like Gecko) Chrome/121.0.0.0 Safari/537.36" etag="wbStzRnTa5u7ywMwEcOP" version="23.1.2" type="device">
  <diagram name="Page-1" id="heZqzl5HYKCOqjsPDitz">
    <mxGraphModel dx="2017" dy="580" grid="1" gridSize="10" guides="1" tooltips="1" connect="1" arrows="1" fold="1" page="1" pageScale="1" pageWidth="850" pageHeight="1100" math="0" shadow="0">
      <root>
        <mxCell id="0" />
        <mxCell id="1" parent="0" />
        <mxCell id="TTl-iUv4mYgAIYNXPhZ1-1" value="" style="rounded=0;whiteSpace=wrap;html=1;" parent="1" vertex="1">
          <mxGeometry x="-60" y="90" width="295" height="830" as="geometry" />
        </mxCell>
        <mxCell id="TTl-iUv4mYgAIYNXPhZ1-2" value="Frontend (React)" style="text;html=1;strokeColor=none;fillColor=none;align=center;verticalAlign=middle;whiteSpace=wrap;rounded=0;fontStyle=1;fontSize=19;" parent="1" vertex="1">
          <mxGeometry x="25" y="100" width="160" height="30" as="geometry" />
        </mxCell>
        <mxCell id="TTl-iUv4mYgAIYNXPhZ1-3" value="Record Audio using React-Audio-Recorder" style="rounded=1;whiteSpace=wrap;html=1;" parent="1" vertex="1">
          <mxGeometry x="37.5" y="170" width="135" height="60" as="geometry" />
        </mxCell>
        <mxCell id="TTl-iUv4mYgAIYNXPhZ1-4" value="Convert blob into file using javascript File()" style="rounded=1;whiteSpace=wrap;html=1;" parent="1" vertex="1">
          <mxGeometry x="45" y="260" width="120" height="60" as="geometry" />
        </mxCell>
        <mxCell id="TTl-iUv4mYgAIYNXPhZ1-6" value="Send POST request to backend with the file embedded in body" style="rounded=1;whiteSpace=wrap;html=1;" parent="1" vertex="1">
          <mxGeometry x="40" y="350" width="130" height="60" as="geometry" />
        </mxCell>
        <mxCell id="TTl-iUv4mYgAIYNXPhZ1-7" value="" style="endArrow=classic;html=1;rounded=0;exitX=0.5;exitY=1;exitDx=0;exitDy=0;entryX=0.5;entryY=0;entryDx=0;entryDy=0;" parent="1" source="TTl-iUv4mYgAIYNXPhZ1-3" target="TTl-iUv4mYgAIYNXPhZ1-4" edge="1">
          <mxGeometry width="50" height="50" relative="1" as="geometry">
            <mxPoint x="400" y="390" as="sourcePoint" />
            <mxPoint x="400" y="460" as="targetPoint" />
            <Array as="points" />
          </mxGeometry>
        </mxCell>
        <mxCell id="TTl-iUv4mYgAIYNXPhZ1-8" value="Blob" style="text;html=1;strokeColor=none;fillColor=none;align=center;verticalAlign=middle;whiteSpace=wrap;rounded=0;" parent="1" vertex="1">
          <mxGeometry x="100" y="230" width="60" height="30" as="geometry" />
        </mxCell>
        <mxCell id="ob07LAOkWRFPLTpur0Br-1" value="" style="endArrow=classic;html=1;rounded=0;exitX=0.5;exitY=1;exitDx=0;exitDy=0;entryX=0.5;entryY=0;entryDx=0;entryDy=0;" parent="1" source="TTl-iUv4mYgAIYNXPhZ1-4" target="TTl-iUv4mYgAIYNXPhZ1-6" edge="1">
          <mxGeometry width="50" height="50" relative="1" as="geometry">
            <mxPoint x="450" y="360" as="sourcePoint" />
            <mxPoint x="340" y="250" as="targetPoint" />
          </mxGeometry>
        </mxCell>
        <mxCell id="ob07LAOkWRFPLTpur0Br-2" value="File" style="text;html=1;strokeColor=none;fillColor=none;align=center;verticalAlign=middle;whiteSpace=wrap;rounded=0;" parent="1" vertex="1">
          <mxGeometry x="90" y="320" width="60" height="30" as="geometry" />
        </mxCell>
        <mxCell id="ob07LAOkWRFPLTpur0Br-3" value="" style="rounded=0;whiteSpace=wrap;html=1;" parent="1" vertex="1">
          <mxGeometry x="410" y="90" width="520" height="830" as="geometry" />
        </mxCell>
        <mxCell id="ob07LAOkWRFPLTpur0Br-4" value="&lt;b&gt;&lt;font style=&quot;font-size: 22px;&quot;&gt;Backend (Django)&lt;/font&gt;&lt;/b&gt;" style="text;html=1;strokeColor=none;fillColor=none;align=center;verticalAlign=middle;whiteSpace=wrap;rounded=0;" parent="1" vertex="1">
          <mxGeometry x="550" y="110" width="270" height="30" as="geometry" />
        </mxCell>
        <mxCell id="ob07LAOkWRFPLTpur0Br-5" value="Receive audio file&amp;nbsp;" style="rounded=1;whiteSpace=wrap;html=1;" parent="1" vertex="1">
          <mxGeometry x="460" y="170" width="120" height="60" as="geometry" />
        </mxCell>
        <mxCell id="ob07LAOkWRFPLTpur0Br-7" value="" style="endArrow=classic;html=1;rounded=0;exitX=1.003;exitY=0.586;exitDx=0;exitDy=0;exitPerimeter=0;entryX=0;entryY=0.5;entryDx=0;entryDy=0;" parent="1" source="TTl-iUv4mYgAIYNXPhZ1-6" target="ob07LAOkWRFPLTpur0Br-5" edge="1">
          <mxGeometry width="50" height="50" relative="1" as="geometry">
            <mxPoint x="390" y="340" as="sourcePoint" />
            <mxPoint x="440" y="290" as="targetPoint" />
            <Array as="points">
              <mxPoint x="330" y="385" />
              <mxPoint x="330" y="200" />
            </Array>
          </mxGeometry>
        </mxCell>
        <mxCell id="ob07LAOkWRFPLTpur0Br-8" value="Post Request" style="text;html=1;strokeColor=none;fillColor=none;align=center;verticalAlign=middle;whiteSpace=wrap;rounded=0;" parent="1" vertex="1">
          <mxGeometry x="250" y="350" width="60" height="30" as="geometry" />
        </mxCell>
        <mxCell id="ob07LAOkWRFPLTpur0Br-14" style="edgeStyle=orthogonalEdgeStyle;rounded=0;orthogonalLoop=1;jettySize=auto;html=1;exitX=0.5;exitY=1;exitDx=0;exitDy=0;entryX=0.5;entryY=0;entryDx=0;entryDy=0;" parent="1" source="ob07LAOkWRFPLTpur0Br-10" target="ob07LAOkWRFPLTpur0Br-13" edge="1">
          <mxGeometry relative="1" as="geometry" />
        </mxCell>
        <mxCell id="ob07LAOkWRFPLTpur0Br-10" value="Convert to text" style="rounded=1;whiteSpace=wrap;html=1;" parent="1" vertex="1">
          <mxGeometry x="460" y="270" width="120" height="60" as="geometry" />
        </mxCell>
        <mxCell id="ob07LAOkWRFPLTpur0Br-11" value="" style="endArrow=classic;html=1;rounded=0;exitX=0.5;exitY=1;exitDx=0;exitDy=0;entryX=0.5;entryY=0;entryDx=0;entryDy=0;" parent="1" source="ob07LAOkWRFPLTpur0Br-5" target="ob07LAOkWRFPLTpur0Br-10" edge="1">
          <mxGeometry width="50" height="50" relative="1" as="geometry">
            <mxPoint x="390" y="320" as="sourcePoint" />
            <mxPoint x="440" y="270" as="targetPoint" />
          </mxGeometry>
        </mxCell>
        <mxCell id="ob07LAOkWRFPLTpur0Br-12" value="Audio File" style="text;html=1;strokeColor=none;fillColor=none;align=center;verticalAlign=middle;whiteSpace=wrap;rounded=0;" parent="1" vertex="1">
          <mxGeometry x="520" y="230" width="60" height="30" as="geometry" />
        </mxCell>
        <mxCell id="ob07LAOkWRFPLTpur0Br-20" style="edgeStyle=orthogonalEdgeStyle;rounded=0;orthogonalLoop=1;jettySize=auto;html=1;exitX=0;exitY=0.5;exitDx=0;exitDy=0;entryX=1;entryY=0.5;entryDx=0;entryDy=0;" parent="1" source="ob07LAOkWRFPLTpur0Br-13" target="ob07LAOkWRFPLTpur0Br-17" edge="1">
          <mxGeometry relative="1" as="geometry" />
        </mxCell>
        <mxCell id="ob07LAOkWRFPLTpur0Br-13" value="Send interpreted text to frontend" style="rounded=1;whiteSpace=wrap;html=1;" parent="1" vertex="1">
          <mxGeometry x="460" y="375" width="120" height="60" as="geometry" />
        </mxCell>
        <mxCell id="ob07LAOkWRFPLTpur0Br-15" value="Text" style="text;html=1;strokeColor=none;fillColor=none;align=center;verticalAlign=middle;whiteSpace=wrap;rounded=0;" parent="1" vertex="1">
          <mxGeometry x="510" y="330" width="60" height="30" as="geometry" />
        </mxCell>
        <mxCell id="ob07LAOkWRFPLTpur0Br-22" style="edgeStyle=orthogonalEdgeStyle;rounded=0;orthogonalLoop=1;jettySize=auto;html=1;exitX=0.5;exitY=1;exitDx=0;exitDy=0;" parent="1" source="ob07LAOkWRFPLTpur0Br-17" target="ob07LAOkWRFPLTpur0Br-18" edge="1">
          <mxGeometry relative="1" as="geometry" />
        </mxCell>
        <mxCell id="ob07LAOkWRFPLTpur0Br-23" style="edgeStyle=orthogonalEdgeStyle;rounded=0;orthogonalLoop=1;jettySize=auto;html=1;exitX=0.5;exitY=1;exitDx=0;exitDy=0;entryX=0.5;entryY=0;entryDx=0;entryDy=0;" parent="1" source="ob07LAOkWRFPLTpur0Br-17" target="ob07LAOkWRFPLTpur0Br-19" edge="1">
          <mxGeometry relative="1" as="geometry" />
        </mxCell>
        <mxCell id="ob07LAOkWRFPLTpur0Br-17" value="Receive Text" style="rounded=1;whiteSpace=wrap;html=1;" parent="1" vertex="1">
          <mxGeometry x="45" y="450" width="120" height="60" as="geometry" />
        </mxCell>
        <mxCell id="ob07LAOkWRFPLTpur0Br-18" value="Display Text on Screen" style="rounded=1;whiteSpace=wrap;html=1;" parent="1" vertex="1">
          <mxGeometry y="570" width="80" height="60" as="geometry" />
        </mxCell>
        <mxCell id="qYYsV1Sxn3G5JcnXwC1t-18" style="edgeStyle=orthogonalEdgeStyle;rounded=0;orthogonalLoop=1;jettySize=auto;html=1;exitX=1;exitY=0.5;exitDx=0;exitDy=0;entryX=0;entryY=0.5;entryDx=0;entryDy=0;" edge="1" parent="1" source="ob07LAOkWRFPLTpur0Br-19" target="qYYsV1Sxn3G5JcnXwC1t-2">
          <mxGeometry relative="1" as="geometry" />
        </mxCell>
        <mxCell id="ob07LAOkWRFPLTpur0Br-19" value="Send POST request to backend with interpreted text in body" style="rounded=1;whiteSpace=wrap;html=1;" parent="1" vertex="1">
          <mxGeometry x="120" y="570" width="90" height="90" as="geometry" />
        </mxCell>
        <mxCell id="ob07LAOkWRFPLTpur0Br-21" value="Response" style="text;html=1;strokeColor=none;fillColor=none;align=center;verticalAlign=middle;whiteSpace=wrap;rounded=0;" parent="1" vertex="1">
          <mxGeometry x="330" y="400" width="60" height="30" as="geometry" />
        </mxCell>
        <mxCell id="ob07LAOkWRFPLTpur0Br-24" value="Text" style="text;html=1;strokeColor=none;fillColor=none;align=center;verticalAlign=middle;whiteSpace=wrap;rounded=0;" parent="1" vertex="1">
          <mxGeometry x="90" y="510" width="60" height="30" as="geometry" />
        </mxCell>
        <mxCell id="qYYsV1Sxn3G5JcnXwC1t-8" style="edgeStyle=orthogonalEdgeStyle;rounded=0;orthogonalLoop=1;jettySize=auto;html=1;exitX=0.5;exitY=1;exitDx=0;exitDy=0;entryX=0.5;entryY=0;entryDx=0;entryDy=0;" edge="1" parent="1" source="qYYsV1Sxn3G5JcnXwC1t-1" target="qYYsV1Sxn3G5JcnXwC1t-6">
          <mxGeometry relative="1" as="geometry" />
        </mxCell>
        <mxCell id="qYYsV1Sxn3G5JcnXwC1t-1" value="Decode Text Commands to get what to do" style="rounded=1;whiteSpace=wrap;html=1;" vertex="1" parent="1">
          <mxGeometry x="460" y="590" width="120" height="60" as="geometry" />
        </mxCell>
        <mxCell id="qYYsV1Sxn3G5JcnXwC1t-3" style="edgeStyle=orthogonalEdgeStyle;rounded=0;orthogonalLoop=1;jettySize=auto;html=1;exitX=0.5;exitY=1;exitDx=0;exitDy=0;entryX=0.5;entryY=0;entryDx=0;entryDy=0;" edge="1" parent="1" source="qYYsV1Sxn3G5JcnXwC1t-2" target="qYYsV1Sxn3G5JcnXwC1t-1">
          <mxGeometry relative="1" as="geometry" />
        </mxCell>
        <mxCell id="qYYsV1Sxn3G5JcnXwC1t-2" value="Receive Text Commands form Frontend" style="rounded=1;whiteSpace=wrap;html=1;" vertex="1" parent="1">
          <mxGeometry x="460" y="480" width="120" height="60" as="geometry" />
        </mxCell>
        <mxCell id="qYYsV1Sxn3G5JcnXwC1t-4" value="Text Command" style="text;html=1;strokeColor=none;fillColor=none;align=left;verticalAlign=middle;whiteSpace=wrap;rounded=0;" vertex="1" parent="1">
          <mxGeometry x="520" y="550" width="60" height="30" as="geometry" />
        </mxCell>
        <mxCell id="qYYsV1Sxn3G5JcnXwC1t-9" style="edgeStyle=orthogonalEdgeStyle;rounded=0;orthogonalLoop=1;jettySize=auto;html=1;exitX=0.5;exitY=1;exitDx=0;exitDy=0;entryX=0.5;entryY=0;entryDx=0;entryDy=0;" edge="1" parent="1" source="qYYsV1Sxn3G5JcnXwC1t-6" target="qYYsV1Sxn3G5JcnXwC1t-7">
          <mxGeometry relative="1" as="geometry" />
        </mxCell>
        <mxCell id="qYYsV1Sxn3G5JcnXwC1t-6" value="Perform tasks accordingly and generate a message" style="rounded=1;whiteSpace=wrap;html=1;" vertex="1" parent="1">
          <mxGeometry x="460" y="690" width="120" height="60" as="geometry" />
        </mxCell>
        <mxCell id="qYYsV1Sxn3G5JcnXwC1t-12" style="edgeStyle=orthogonalEdgeStyle;rounded=0;orthogonalLoop=1;jettySize=auto;html=1;exitX=0;exitY=0.5;exitDx=0;exitDy=0;entryX=1;entryY=0.5;entryDx=0;entryDy=0;" edge="1" parent="1" source="qYYsV1Sxn3G5JcnXwC1t-7" target="qYYsV1Sxn3G5JcnXwC1t-11">
          <mxGeometry relative="1" as="geometry" />
        </mxCell>
        <mxCell id="qYYsV1Sxn3G5JcnXwC1t-7" value="Send Message to Frontend" style="rounded=1;whiteSpace=wrap;html=1;" vertex="1" parent="1">
          <mxGeometry x="460" y="790" width="120" height="60" as="geometry" />
        </mxCell>
        <mxCell id="qYYsV1Sxn3G5JcnXwC1t-10" value="Message" style="text;html=1;strokeColor=none;fillColor=none;align=center;verticalAlign=middle;whiteSpace=wrap;rounded=0;" vertex="1" parent="1">
          <mxGeometry x="520" y="750" width="60" height="30" as="geometry" />
        </mxCell>
        <mxCell id="qYYsV1Sxn3G5JcnXwC1t-14" style="edgeStyle=orthogonalEdgeStyle;rounded=0;orthogonalLoop=1;jettySize=auto;html=1;exitX=0.5;exitY=1;exitDx=0;exitDy=0;entryX=0.5;entryY=0;entryDx=0;entryDy=0;" edge="1" parent="1" source="qYYsV1Sxn3G5JcnXwC1t-11" target="qYYsV1Sxn3G5JcnXwC1t-13">
          <mxGeometry relative="1" as="geometry" />
        </mxCell>
        <mxCell id="qYYsV1Sxn3G5JcnXwC1t-11" value="Receive Message From Backend" style="rounded=1;whiteSpace=wrap;html=1;" vertex="1" parent="1">
          <mxGeometry x="45" y="680" width="120" height="60" as="geometry" />
        </mxCell>
        <mxCell id="qYYsV1Sxn3G5JcnXwC1t-26" style="edgeStyle=orthogonalEdgeStyle;rounded=0;orthogonalLoop=1;jettySize=auto;html=1;exitX=0.5;exitY=1;exitDx=0;exitDy=0;entryX=0.5;entryY=0;entryDx=0;entryDy=0;" edge="1" parent="1" source="qYYsV1Sxn3G5JcnXwC1t-13" target="TTl-iUv4mYgAIYNXPhZ1-3">
          <mxGeometry relative="1" as="geometry">
            <Array as="points">
              <mxPoint x="105" y="870" />
              <mxPoint x="-30" y="870" />
              <mxPoint x="-30" y="150" />
              <mxPoint x="105" y="150" />
            </Array>
          </mxGeometry>
        </mxCell>
        <mxCell id="qYYsV1Sxn3G5JcnXwC1t-13" value="Display Message on Screen" style="rounded=1;whiteSpace=wrap;html=1;" vertex="1" parent="1">
          <mxGeometry x="45" y="790" width="120" height="60" as="geometry" />
        </mxCell>
        <mxCell id="qYYsV1Sxn3G5JcnXwC1t-16" value="Message" style="text;html=1;strokeColor=none;fillColor=none;align=center;verticalAlign=middle;whiteSpace=wrap;rounded=0;" vertex="1" parent="1">
          <mxGeometry x="105" y="750" width="60" height="30" as="geometry" />
        </mxCell>
        <mxCell id="qYYsV1Sxn3G5JcnXwC1t-19" value="Post Request" style="text;html=1;strokeColor=none;fillColor=none;align=center;verticalAlign=middle;whiteSpace=wrap;rounded=0;" vertex="1" parent="1">
          <mxGeometry x="250" y="585" width="60" height="30" as="geometry" />
        </mxCell>
        <mxCell id="qYYsV1Sxn3G5JcnXwC1t-20" value="Response" style="text;html=1;strokeColor=none;fillColor=none;align=center;verticalAlign=middle;whiteSpace=wrap;rounded=0;" vertex="1" parent="1">
          <mxGeometry x="320" y="790" width="60" height="30" as="geometry" />
        </mxCell>
        <mxCell id="qYYsV1Sxn3G5JcnXwC1t-21" value="" style="rounded=1;whiteSpace=wrap;html=1;" vertex="1" parent="1">
          <mxGeometry x="670" y="180" width="220" height="290" as="geometry" />
        </mxCell>
        <mxCell id="qYYsV1Sxn3G5JcnXwC1t-22" value="" style="shape=flexArrow;endArrow=classic;startArrow=classic;html=1;rounded=0;exitX=1;exitY=0.5;exitDx=0;exitDy=0;" edge="1" parent="1" source="ob07LAOkWRFPLTpur0Br-10">
          <mxGeometry width="100" height="100" relative="1" as="geometry">
            <mxPoint x="390" y="450" as="sourcePoint" />
            <mxPoint x="670" y="300" as="targetPoint" />
            <Array as="points" />
          </mxGeometry>
        </mxCell>
        <mxCell id="qYYsV1Sxn3G5JcnXwC1t-23" value="" style="rounded=1;whiteSpace=wrap;html=1;" vertex="1" parent="1">
          <mxGeometry x="660" y="490" width="240" height="360" as="geometry" />
        </mxCell>
        <mxCell id="qYYsV1Sxn3G5JcnXwC1t-24" value="" style="shape=flexArrow;endArrow=classic;startArrow=classic;html=1;rounded=0;exitX=1;exitY=0.5;exitDx=0;exitDy=0;entryX=0.009;entryY=0.638;entryDx=0;entryDy=0;entryPerimeter=0;" edge="1" parent="1" source="qYYsV1Sxn3G5JcnXwC1t-6" target="qYYsV1Sxn3G5JcnXwC1t-23">
          <mxGeometry width="100" height="100" relative="1" as="geometry">
            <mxPoint x="390" y="660" as="sourcePoint" />
            <mxPoint x="490" y="560" as="targetPoint" />
          </mxGeometry>
        </mxCell>
      </root>
    </mxGraphModel>
  </diagram>
</mxfile>
